<?xml version="1.0" encoding="UTF-8"?>
<svg width="24" height="24" version="1.1" viewBox="0 0 24 24" xmlns="http://www.w3.org/2000/svg">
  <circle cx="12" cy="12" r="12" fill="#008000"/>
  <path d="m8.9999 9.7998v7.7983l-9e-5 -5e-5c7e-3 0.71317-0.46698 1.5173-1.4495 2.0226-1.3646 0.70177-2.7994 0.35928-3.3246-0.45104-0.5252-0.81033-0.14073-2.0884 1.2238-2.7902 0.9177-0.47194 1.8672-0.4716 2.5504-0.17429v-10.205l10-2v12.601l-6e-5 3e-5c6e-3 0.71257-0.4681 1.5155-1.4495 2.0202-1.3646 0.70177-2.7994 0.35928-3.3246-0.45104-0.52522-0.81033-0.14073-2.0884 1.2238-2.7902 0.91768-0.47194 1.8672-0.4716 2.5504-0.17429v-7.0051l-8 1.5997" fill="#fff" fill-rule="evenodd"/>
</svg>
